<svg width="24" height="24" viewBox="0 0 24 24" fill="none" xmlns="http://www.w3.org/2000/svg">
<circle cx="12" cy="12" r="12" fill="#C74A90"/>
<path d="M14.917 13.1667C14.6076 13.1527 14.3053 13.2623 14.0767 13.4713C13.848 13.6802 13.7117 13.9714 13.6978 14.2808C13.6839 14.5903 13.7935 14.8925 14.0024 15.1212C14.2114 15.3498 14.5026 15.4861 14.812 15.5C14.7171 15.7753 14.557 16.0234 14.3453 16.2233C14.1634 16.388 13.9489 16.5125 13.7158 16.5889C13.4826 16.6653 13.236 16.6918 12.992 16.6667C12.5484 16.6052 12.1428 16.3829 11.8524 16.042C11.562 15.701 11.407 15.2652 11.417 14.8175V12H13.7503C13.905 12 14.0534 11.9385 14.1628 11.8291C14.2722 11.7197 14.3337 11.5714 14.3337 11.4167C14.3337 11.262 14.2722 11.1136 14.1628 11.0042C14.0534 10.8948 13.905 10.8333 13.7503 10.8333H11.417V8.5C11.417 8.03587 11.2326 7.59075 10.9044 7.26256C10.5762 6.93437 10.1311 6.75 9.66699 6.75C9.20286 6.75 8.75774 6.93437 8.42956 7.26256C8.10137 7.59075 7.91699 8.03587 7.91699 8.5C7.91699 8.65471 7.97845 8.80308 8.08785 8.91248C8.19724 9.02187 8.34562 9.08333 8.50033 9.08333C8.65504 9.08333 8.80341 9.02187 8.9128 8.91248C9.0222 8.80308 9.08366 8.65471 9.08366 8.5C9.08366 8.34529 9.14512 8.19692 9.25451 8.08752C9.36391 7.97812 9.51228 7.91667 9.66699 7.91667C9.8217 7.91667 9.97007 7.97812 10.0795 8.08752C10.1889 8.19692 10.2503 8.34529 10.2503 8.5V10.8333H9.08366C8.92895 10.8333 8.78058 10.8948 8.67118 11.0042C8.56178 11.1136 8.50033 11.262 8.50033 11.4167C8.50033 11.5714 8.56178 11.7197 8.67118 11.8291C8.78058 11.9385 8.92895 12 9.08366 12H10.2503V14.8175C10.2405 15.5559 10.5035 16.2721 10.9889 16.8286C11.4744 17.3851 12.1482 17.7429 12.8812 17.8333H13.167C13.9405 17.8333 14.6824 17.526 15.2294 16.9791C15.7764 16.4321 16.0837 15.6902 16.0837 14.9167V14.3333C16.0837 14.0239 15.9607 13.7272 15.742 13.5084C15.5232 13.2896 15.2264 13.1667 14.917 13.1667Z" fill="white"/>
</svg>
