<svg xmlns="http://www.w3.org/2000/svg" width="478.825" height="211.395" viewBox="0 0 478.825 211.395">
  <g id="logo-bkash" transform="translate(-58.682 349.635)">
    <g id="Group_296" data-name="Group 296">
      <path id="Path_217" data-name="Path 217" d="M62.7-258.495a30.584,30.584,0,0,0-.792-7.139,8.823,8.823,0,0,0-3.226-5.169l13.013-1.968v38.4a.543.543,0,0,0,.614.614c.243,0,.818-.512,1.712-1.546a31.637,31.637,0,0,1,3.482-3.335,27.63,27.63,0,0,1,5.137-3.345,14.578,14.578,0,0,1,6.785-1.549,15.817,15.817,0,0,1,9.289,2.648,19.634,19.634,0,0,1,6.056,6.775,32.721,32.721,0,0,1,3.3,9.117,47.64,47.64,0,0,1,1.041,9.787,43.958,43.958,0,0,1-1.52,11.7,29.139,29.139,0,0,1-4.638,9.737,22.239,22.239,0,0,1-7.986,6.644,25.315,25.315,0,0,1-11.577,2.466,43.044,43.044,0,0,1-5.367-.307c-1.628-.2-3.232-.434-4.817-.676s-3.252-.474-5-.678a51.432,51.432,0,0,0-5.916-.307q.2-7.754.307-15.448t.1-15.441ZM98.5-221a29.23,29.23,0,0,0-2.44-7.456,15.155,15.155,0,0,0-4.4-5.418,10.481,10.481,0,0,0-6.529-2.095,11.321,11.321,0,0,0-9.953,5.111q-3.48,5.116-3.483,13.985v9.488a64.41,64.41,0,0,0,.365,7.027,16.342,16.342,0,0,0,1.648,5.789,9.9,9.9,0,0,0,3.725,3.936,12.929,12.929,0,0,0,6.72,1.481,12.222,12.222,0,0,0,7.629-2.274,15.389,15.389,0,0,0,4.645-5.794,27.38,27.38,0,0,0,2.262-7.7,56.281,56.281,0,0,0,.606-8.012A42.636,42.636,0,0,0,98.5-221Z" fill="#1a1818"/>
      <path id="Path_218" data-name="Path 218" d="M124.091-248.924q0-4.17-.307-8.53A15.638,15.638,0,0,0,121.413-265h16.4a15.613,15.613,0,0,0-2.376,7.536q-.308,4.35-.306,8.516v19.112a11,11,0,0,0,4.567-2.083,42.691,42.691,0,0,0,4.875-4.166q2.5-2.451,4.939-5.328t4.753-5.577q4.993-5.878,7.916-9.679t2.925-6v-1.348a3.358,3.358,0,0,0-.121-.981H180.1q-4.265,3.8-7.986,6.983a88.507,88.507,0,0,0-7.73,7.6l-18.893,20.584,20.228,29.127q2.435,3.564,5.36,7.187T176.8-186.7h-12.8a3.731,3.731,0,0,1-2.677-.921,13.339,13.339,0,0,1-1.948-2.4l-21.934-33.414a11.56,11.56,0,0,0-.92-1.291c-.364-.446-.664-.677-.907-.677a.393.393,0,0,0-.428.37,4.057,4.057,0,0,0-.063.736v21.5q0,4.179.306,8.548a15.688,15.688,0,0,0,2.376,7.552h-16.4a15.619,15.619,0,0,0,2.371-7.552q.306-4.35.307-8.523Z" fill="#1a1818"/>
      <path id="Path_219" data-name="Path 219" d="M213.815-185.882a38.632,38.632,0,0,1-1.028-5.534c-.122-1.392-.422-2.082-.9-2.082a.7.7,0,0,0-.492.121c-.084.083-.167.161-.243.244q-1.226,1.724-2.389,3.257a13.377,13.377,0,0,1-2.76,2.7,12.473,12.473,0,0,1-3.795,1.84,18.747,18.747,0,0,1-5.393.677,16.984,16.984,0,0,1-10.777-3.443q-4.408-3.441-4.408-10.2a10.937,10.937,0,0,1,2.255-6.952,23.333,23.333,0,0,1,5.622-5.1,46.689,46.689,0,0,1,7.207-3.872q3.852-1.659,6.906-3.137,2.568-1.236,4.274-2.1a8.8,8.8,0,0,0,2.69-1.98,6.117,6.117,0,0,0,1.342-2.843,23.838,23.838,0,0,0,.37-4.7,13.746,13.746,0,0,0-2.07-7.718q-2.07-3.162-7.437-3.155-4.389,0-6.088,1.84a13.48,13.48,0,0,0-2.62,4.056,31.878,31.878,0,0,1-2.013,4.057c-.734,1.227-2.069,1.84-4.018,1.84a4.861,4.861,0,0,1-3.3-1.047,4.039,4.039,0,0,1-1.214-3.252,7.237,7.237,0,0,1,2.069-5.22,15.692,15.692,0,0,1,5.24-3.5,28.214,28.214,0,0,1,7.008-1.9,51.921,51.921,0,0,1,7.372-.552,42.626,42.626,0,0,1,6.21.431,16.673,16.673,0,0,1,5.112,1.54,8.778,8.778,0,0,1,3.463,3.076,8.92,8.92,0,0,1,1.277,4.932v27.089q0,5.538.3,10.771a16.547,16.547,0,0,0,3.111,9.053Zm-19.333-7.872a10.4,10.4,0,0,0,6.792,2.147,9.566,9.566,0,0,0,4.773-1.163,10.922,10.922,0,0,0,3.488-3.06,12.965,12.965,0,0,0,2.083-4.35,19.017,19.017,0,0,0,.677-5.023v-12.368l-6.612,3.31c-2.288,1.136-4.288,2.184-6,3.117a25.684,25.684,0,0,0-4.345,2.939,9.944,9.944,0,0,0-2.632,3.437,10.713,10.713,0,0,0-.856,4.466Q191.851-195.894,194.482-193.754Z" fill="#1a1818"/>
      <path id="Path_220" data-name="Path 220" d="M244.616-226.177a20.3,20.3,0,0,0,4.69,4.377,54.8,54.8,0,0,0,6.094,3.571,38.708,38.708,0,0,1,6.1,3.814,21.05,21.05,0,0,1,4.69,5,12.625,12.625,0,0,1,1.891,7.143,15.145,15.145,0,0,1-1.891,7.705,17.483,17.483,0,0,1-5.009,5.482,22.735,22.735,0,0,1-6.957,3.322,27.8,27.8,0,0,1-7.75,1.111,33.892,33.892,0,0,1-6.9-.677,41.088,41.088,0,0,1-6.657-2.032,4.723,4.723,0,0,1-1.52-.862,2.437,2.437,0,0,1-.55-1.847,41.056,41.056,0,0,1,.243-4.433c.159-1.483.287-3,.37-4.562q1.456,2.329,2.8,4.165a14.588,14.588,0,0,0,3.053,3.118,12.719,12.719,0,0,0,3.853,1.955,17.3,17.3,0,0,0,5.194.677q5.5,0,8.5-2.581t3-7.877a10.567,10.567,0,0,0-1.762-6.21,18.41,18.41,0,0,0-4.447-4.428,49.813,49.813,0,0,0-5.852-3.571,35.387,35.387,0,0,1-5.846-3.814A18.539,18.539,0,0,1,235.5-222.8a14.743,14.743,0,0,1-1.77-7.572q0-7,4.933-10.085t13.582-3.075a35.725,35.725,0,0,1,5.546.431q2.74.431,5.539,1.048a5.372,5.372,0,0,0,.913.306.791.791,0,0,1,.671.8c0,1.15-.025,2.511-.063,4.069s-.1,2.991-.179,4.307q-1.831-2.223-3.234-3.641a12.6,12.6,0,0,0-2.861-2.224,10.543,10.543,0,0,0-3.048-1.109,19.517,19.517,0,0,0-3.661-.309,11.534,11.534,0,0,0-6.338,1.788,6.282,6.282,0,0,0-2.8,5.725A9.842,9.842,0,0,0,244.616-226.177Z" fill="#1a1818"/>
      <path id="Path_221" data-name="Path 221" d="M321.033-199.989q0,3.45.243,7.079a14.56,14.56,0,0,0,1.706,6.21H312.038v-33.771a57.357,57.357,0,0,0-.307-5.917,15.275,15.275,0,0,0-1.475-5.3,9.977,9.977,0,0,0-3.317-3.82,10.176,10.176,0,0,0-5.838-1.483,10.471,10.471,0,0,0-5.9,1.483,10.449,10.449,0,0,0-3.5,3.942,16.889,16.889,0,0,0-1.725,5.552,44.2,44.2,0,0,0-.428,6.159v19.844q0,3.45.249,7.091A12.379,12.379,0,0,0,291.8-186.7H278.362a12.613,12.613,0,0,0,1.948-6.21q.242-3.622.244-7.066v-58.531a65.485,65.485,0,0,0-.365-7.13,7.16,7.16,0,0,0-2.8-5.166l12.164-1.968V-238c0,.486.019.939.051,1.348s.153.613.358.613c.242,0,.715-.389,1.412-1.169a18.864,18.864,0,0,1,3.009-2.578,23.2,23.2,0,0,1,4.855-2.581,18.175,18.175,0,0,1,6.818-1.165q7,0,10.988,3.693t3.993,12.3Z" fill="#1a1818"/>
    </g>
    <g id="Group_297" data-name="Group 297">
      <path id="Path_222" data-name="Path 222" d="M309.349-349.635,412.8-336.141l-24.533,85.866Z" fill="#cb2155"/>
      <path id="Path_223" data-name="Path 223" d="M416.477-335.733l76.87,102.222-88.728,42.524-11.04-44.977S390.717-252.32,395.214-265Z" fill="#cb2155"/>
      <path id="Path_224" data-name="Path 224" d="M496.209-234.329,467.587-274.4l48.249-8.178Z" fill="#9f0010"/>
      <path id="Path_225" data-name="Path 225" d="M519.516-282.578l17.991,19.218H511.338Z" fill="#9f0010"/>
      <path id="Path_226" data-name="Path 226" d="M420.156-193.849l73.19-36.391-2.453,8.586Z" fill="#cd231e"/>
      <path id="Path_227" data-name="Path 227" d="M388.264-241.28,357.6-138.241l46.613-36.8Z" fill="#8a000b"/>
      <path id="Path_228" data-name="Path 228" d="M349.419-294.435,319.57-332.462l-11.449.409Z" fill="#9f0010"/>
      <path id="Path_229" data-name="Path 229" d="M392.927-241.648c.262,3.447.652,5.684.652,5.684l11.04,44.977,88.728-42.524-.811-1.08Z" fill="#b50014"/>
    </g>
  </g>
</svg>
