<svg xmlns="http://www.w3.org/2000/svg" width="174.618" height="93.719" viewBox="0 0 174.618 93.719">
  <g id="Group_3" data-name="Group 3" transform="translate(-471.284 -560.261)">
    <g id="Group_1" data-name="Group 1" transform="translate(471.284 560.261)">
      <path id="Path_1" data-name="Path 1" d="M533.9,600.8h-6.277V569.9a9.648,9.648,0,0,0-9.636-9.636H480.921a9.648,9.648,0,0,0-9.637,9.636v74.447a9.648,9.648,0,0,0,9.637,9.636h37.067a9.648,9.648,0,0,0,9.636-9.636v-6.508H533.9a3.992,3.992,0,0,0,3.988-3.988V604.785A3.992,3.992,0,0,0,533.9,600.8Zm1.424,3.988v3H483.346v-3a1.426,1.426,0,0,1,1.424-1.424H533.9A1.425,1.425,0,0,1,535.324,604.785Zm-11.289,39.559a6.054,6.054,0,0,1-6.048,6.045H480.921a6.052,6.052,0,0,1-6.045-6.045V569.9a6.052,6.052,0,0,1,6.045-6.045h37.067a6.054,6.054,0,0,1,6.048,6.045v30.9H484.769a3.991,3.991,0,0,0-3.988,3.988v29.063a3.991,3.991,0,0,0,3.988,3.988h39.266Zm9.865-9.072H484.769a1.426,1.426,0,0,1-1.424-1.424V615.255h51.979v18.593A1.425,1.425,0,0,1,533.9,635.272Z" transform="translate(-471.284 -560.261)" fill="#9c1f63"/>
      <path id="Path_2" data-name="Path 2" d="M500.161,581.977h-21.7a1.155,1.155,0,0,0,0,2.309h21.7a1.155,1.155,0,0,0,0-2.309Z" transform="translate(-459.87 -519.135)" fill="#9c1f63"/>
      <path id="Path_3" data-name="Path 3" d="M494.4,583.936H478.466a1.155,1.155,0,0,0,0,2.309H494.4a1.155,1.155,0,1,0,0-2.309Z" transform="translate(-459.87 -515.425)" fill="#9c1f63"/>
      <path id="Path_4" data-name="Path 4" d="M496.613,582.762h-1.184v0h-2.593v0H491.45a3.429,3.429,0,1,0,0,6.858h5.163a3.429,3.429,0,0,0,0-6.858Z" transform="translate(-439.587 -517.654)" fill="#9c1f63"/>
      <path id="Path_5" data-name="Path 5" d="M488.647,588.027a11.656,11.656,0,1,0-11.656-11.656A11.67,11.67,0,0,0,488.647,588.027Zm0-20.72a9.063,9.063,0,1,1-9.064,9.063A9.074,9.074,0,0,1,488.647,567.307Z" transform="translate(-460.476 -551.828)" fill="#9c1f63"/>
      <path id="Path_6" data-name="Path 6" d="M479.3,571.65l1.178,1.23h1.23v4.043a2.6,2.6,0,0,0,.972,1.282,2.682,2.682,0,0,0,1.586.64,4.568,4.568,0,0,0,3.481-1.589,4.838,4.838,0,0,0,1.484-3.328,3.058,3.058,0,0,0-.666-2,1.946,1.946,0,0,0-1.586-.819,1.567,1.567,0,0,0-1.279.463,1.584,1.584,0,0,0-.385,1.047q0,1.741,1.638,1.742l.307-.026a3.213,3.213,0,0,1-1.073,2.1,2.811,2.811,0,0,1-1.9,1,1.3,1.3,0,0,1-1-.333,1.06,1.06,0,0,1-.307-.741V572.88h1.919l-1.2-1.23h-.718v-2.688a3.024,3.024,0,0,0-.512-1.69,1.38,1.38,0,0,0-1.2-.64,2.287,2.287,0,0,0-.92.231c-.341.153-.512.342-.512.561v.13a5.708,5.708,0,0,0,.434.92.807.807,0,0,1,.538-.127c.6.084.9.376.9.871v2.431Z" transform="translate(-456.098 -548.195)" fill="#9c1f63"/>
      <path id="Path_7" data-name="Path 7" d="M480,564.819h10.782a1.3,1.3,0,0,0,0-2.593H480a1.3,1.3,0,0,0,0,2.593Z" transform="translate(-457.224 -556.54)" fill="#9c1f63"/>
      <path id="Path_8" data-name="Path 8" d="M483.307,595.18a3.5,3.5,0,1,0-3.5-3.5A3.5,3.5,0,0,0,483.307,595.18Zm0-4.4a.9.9,0,1,1-.9.9A.9.9,0,0,1,483.307,590.782Z" transform="translate(-455.135 -507.37)" fill="#9c1f63"/>
    </g>
    <g id="Group_2" data-name="Group 2" transform="translate(557.898 601.023)">
      <path id="Path_9" data-name="Path 9" d="M503.288,585.022c0-6.1,4.39-10.675,10.383-10.675a10.225,10.225,0,1,1,.237,20.448C508.425,594.795,503.288,590.854,503.288,585.022Zm15.76-.426a5.572,5.572,0,0,0-5.377-5.831,5.481,5.481,0,0,0-5.354,5.75c0,3.25,2.211,5.857,5.432,5.857C516.863,590.373,519.048,587.737,519.048,584.6Z" transform="translate(-503.288 -574.347)" fill="#474747"/>
      <path id="Path_10" data-name="Path 10" d="M513.085,594.177V582.755H510.9V579.4h2.185v-4.925H517.5V579.4h2.13v3.354H517.5v11.422Z" transform="translate(-488.872 -574.103)" fill="#474747"/>
      <path id="Path_11" data-name="Path 11" d="M523.848,594.177v-8.12c0-1.919-.747-3.01-2.37-3.01-1.678,0-2.477.987-2.477,2.822v8.308h-4.419v-19.7H519v6.334a4.171,4.171,0,0,1,3.834-1.916c3.383,0,5.429,2.13,5.429,5.99v9.292Z" transform="translate(-481.899 -574.103)" fill="#474747"/>
      <path id="Path_12" data-name="Path 12" d="M524.493,585.24a3.3,3.3,0,0,0,3.458,2.8,3.11,3.11,0,0,0,2.691-1.386h4.523A7.793,7.793,0,1,1,527.873,576a7.792,7.792,0,0,1,7.8,8.068,5.753,5.753,0,0,1-.107,1.169Zm6.76-2.981a3.31,3.31,0,0,0-3.38-2.529,3.275,3.275,0,0,0-3.328,2.529Z" transform="translate(-471.406 -571.211)" fill="#474747"/>
      <path id="Path_13" data-name="Path 13" d="M526.337,591.285V576.509h4.153v1.568h.052a3.633,3.633,0,0,1,3.7-2.075v4.448c-2.636.026-3.487,1.01-3.487,2.688v8.146Z" transform="translate(-459.637 -571.211)" fill="#474747"/>
      <path id="Path_14" data-name="Path 14" d="M536.78,580.662c-.026-.851-.64-1.117-1.357-1.117-.744,0-1.279.422-1.279.984,0,.8.721,1.2,2.772,1.73,3.513.932,4.659,2.341,4.659,4.5,0,3.088-2.662,5.03-6.019,5.03-3.328,0-5.7-1.89-6.016-4.9h4.393a1.527,1.527,0,0,0,1.678,1.357c.773,0,1.542-.454,1.542-1.146,0-.825-.5-1.25-2.714-1.945-3.727-1.143-4.711-2.607-4.711-4.338,0-2.929,2.74-4.818,5.721-4.818,3.2,0,5.461,1.757,5.672,4.659Z" transform="translate(-453.571 -571.211)" fill="#474747"/>
    </g>
  </g>
</svg>
